<svg xmlns="http://www.w3.org/2000/svg" width="1000" height="414" fill="none" xmlns:v="https://vecta.io/nano"><path d="M53.868 179.747a3.96 3.96 0 0 1-2.783-1.14 3.87 3.87 0 0 1-1.153-2.753V134.54c0-.969-.389-1.899-1.082-2.584a3.72 3.72 0 0 0-2.613-1.071h-42.3a3.96 3.96 0 0 1-2.783-1.14A3.87 3.87 0 0 1 0 126.992V3.893a3.87 3.87 0 0 1 .299-1.49 3.89 3.89 0 0 1 .853-1.263A3.94 3.94 0 0 1 2.43.296 3.98 3.98 0 0 1 3.936 0H45.98c1.041.004 2.038.416 2.773 1.146A3.87 3.87 0 0 1 49.9 3.893v122.766a3.62 3.62 0 0 0 .278 1.407 3.65 3.65 0 0 0 .804 1.193c.345.341.755.611 1.206.795a3.73 3.73 0 0 0 1.423.275h55.442c1.039 0 2.036.409 2.772 1.136a3.85 3.85 0 0 1 1.148 2.741v41.584c0 1.03-.413 2.018-1.147 2.748a3.96 3.96 0 0 1-2.773 1.146l-55.185.063zM213.365.112a3.94 3.94 0 0 0-2.771 1.136c-.736.727-1.149 1.713-1.149 2.742v41.314c0 .969-.389 1.899-1.082 2.584s-1.633 1.07-2.613 1.07h-42.284a3.94 3.94 0 0 0-2.772 1.136c-.735.727-1.148 1.713-1.148 2.742V175.95c0 1.028.413 2.014 1.148 2.741s1.732 1.136 2.772 1.136h105.133a3.96 3.96 0 0 0 1.5-.295 3.93 3.93 0 0 0 1.271-.841 3.87 3.87 0 0 0 .85-1.258c.197-.47.299-.974.299-1.483v-41.584a3.87 3.87 0 0 0-1.148-2.747c-.734-.73-1.731-1.142-2.772-1.146H213.14a3.71 3.71 0 0 1-2.612-1.071c-.693-.685-1.083-1.615-1.083-2.584v-11.822c0-.969.39-1.899 1.083-2.584a3.71 3.71 0 0 1 2.612-1.071h47.603a3.96 3.96 0 0 0 1.5-.295 3.93 3.93 0 0 0 1.271-.84 3.88 3.88 0 0 0 .85-1.258c.197-.471.299-.975.299-1.484V72.808a3.87 3.87 0 0 0-1.148-2.747c-.734-.73-1.731-1.142-2.772-1.146H213.14c-.98 0-1.919-.385-2.612-1.07s-1.083-1.615-1.083-2.584V53.168c0-.969.39-1.899 1.083-2.584s1.632-1.071 2.612-1.071h55.459a3.96 3.96 0 0 0 1.5-.295 3.93 3.93 0 0 0 1.271-.84 3.87 3.87 0 0 0 .85-1.258 3.84 3.84 0 0 0 .299-1.484v-41.6a3.84 3.84 0 0 0-.299-1.484 3.88 3.88 0 0 0-.85-1.258 3.91 3.91 0 0 0-1.271-.84 3.96 3.96 0 0 0-1.5-.295L213.365.112zM432.884 0H322.996a3.96 3.96 0 0 0-2.773 1.146c-.734.73-1.147 1.717-1.147 2.747v171.611c0 1.029.413 2.015 1.148 2.742s1.732 1.136 2.772 1.136h42.06c1.039 0 2.036-.409 2.772-1.136a3.85 3.85 0 0 0 1.148-2.742V53.152a3.65 3.65 0 0 1 1.081-2.59 3.73 3.73 0 0 1 2.614-1.081h52.598a3.73 3.73 0 0 1 2.614 1.081 3.65 3.65 0 0 1 1.081 2.59v122.352c0 1.029.413 2.015 1.148 2.742s1.733 1.136 2.772 1.136h42.06c1.04 0 2.037-.409 2.772-1.136s1.148-1.713 1.148-2.742V53.152a3.65 3.65 0 0 1 1.081-2.59c.693-.688 1.632-1.076 2.614-1.081h52.325a3.73 3.73 0 0 1 2.614 1.081 3.65 3.65 0 0 1 1.081 2.59v122.495c0 1.029.413 2.015 1.148 2.742s1.733 1.136 2.772 1.136h41.498a3.94 3.94 0 0 0 2.771-1.136c.736-.727 1.149-1.713 1.149-2.742V53.374a3.87 3.87 0 0 0-1.148-2.747c-.734-.73-1.731-1.142-2.772-1.146h-41.16c-.98 0-1.92-.385-2.613-1.07s-1.082-1.615-1.082-2.584V4.02c0-1.032-.415-2.023-1.153-2.753a3.96 3.96 0 0 0-2.784-1.14H432.884V0zm407.617 4.052v171.611a3.86 3.86 0 0 0 1.148 2.742 3.94 3.94 0 0 0 2.772 1.135h42.044a3.96 3.96 0 0 0 2.777-1.134c.738-.727 1.154-1.713 1.159-2.743V53.183c0-.969.389-1.899 1.082-2.584s1.633-1.07 2.613-1.07h52.309c.98 0 1.92.385 2.613 1.07s1.082 1.615 1.082 2.584v122.798c0 .481.096.958.283 1.402a3.65 3.65 0 0 0 .805 1.188c.345.339.754.608 1.204.791a3.71 3.71 0 0 0 1.419.273h42.493c.98 0 1.92-.385 2.613-1.07s1.083-1.615 1.083-2.584V52.15c0-.969-.39-1.899-1.083-2.584a3.72 3.72 0 0 0-2.613-1.071h-42.493c-.983-.004-1.924-.392-2.619-1.08s-1.088-1.619-1.092-2.591V4.067a3.85 3.85 0 0 0-.294-1.489 3.86 3.86 0 0 0-.848-1.263 3.94 3.94 0 0 0-1.274-.845 3.96 3.96 0 0 0-1.504-.297H844.421a3.94 3.94 0 0 0-2.772 1.136c-.735.727-1.148 1.713-1.148 2.742zM688.039 49.465c-.98 0-1.92.385-2.613 1.07s-1.082 1.615-1.082 2.584v73.65c0 .969.389 1.899 1.082 2.584s1.633 1.07 2.613 1.07h52.309c.98 0 1.92-.385 2.613-1.07s1.082-1.615 1.082-2.584V53.12c0-.969-.389-1.899-1.082-2.584s-1.633-1.07-2.613-1.07h-52.309zM638.364.111a3.94 3.94 0 0 0-2.771 1.136c-.736.727-1.149 1.713-1.149 2.742V127.12c0 1.029.413 2.015 1.149 2.742a3.94 3.94 0 0 0 2.771 1.135h41.931a3.72 3.72 0 0 1 2.613 1.071c.693.685 1.083 1.615 1.083 2.584v41.314a3.87 3.87 0 0 0 1.158 2.743 3.96 3.96 0 0 0 2.778 1.134h102.032a3.96 3.96 0 0 0 2.777-1.134c.738-.727 1.154-1.713 1.159-2.743V3.988c.001-.674-.176-1.337-.515-1.923a3.88 3.88 0 0 0-1.413-1.414 3.86 3.86 0 0 0-1.992-.54H638.316h.048z" fill-rule="evenodd" fill="#000"/><path fill="#efff04" d="M0 232.05h999.998v180.999H0z"/><g filter="url(#A)"><path d="M87.89 368.124c23.441 0 34.772-11.955 34.772-27.809 0-32.357-49.879-23.131-49.879-36.905 0-5.198 4.428-8.707 12.372-8.707 8.856 0 18.232 2.989 25.265 9.487l10.288-13.515c-8.595-7.927-20.056-12.085-33.86-12.085-20.446 0-32.949 11.955-32.949 26.379 0 32.617 50.009 22.092 50.009 37.425 0 4.938-4.949 9.617-15.107 9.617a38.12 38.12 0 0 1-27.609-11.696L51.164 354.35c8.074 8.186 20.056 13.774 36.726 13.774z" fill="#000"/><path d="M251.597 368.124c19.144 0 30.083-10.526 36.334-21.311l-15.888-7.667c-3.647 7.147-11.46 12.605-20.446 12.605-15.759 0-27.219-12.086-27.219-28.459s11.46-28.459 27.219-28.459c8.986 0 16.799 5.588 20.446 12.605l15.888-7.797c-6.121-10.785-17.19-21.181-36.334-21.181-26.047 0-46.233 18.193-46.233 44.832s20.186 44.832 46.233 44.832z" fill="#000"/><path d="M451.497 366.565v-86.676h-18.623v34.047H391.85v-34.047h-18.492v86.676h18.492v-36.386h41.024v36.386h18.623z" fill="#000"/><path d="M584.187 368.124c26.307 0 45.451-18.712 45.451-44.832s-19.144-44.832-45.451-44.832c-26.177 0-45.321 18.712-45.321 44.832s19.144 44.832 45.321 44.832zm0-16.373c-16.018 0-26.307-12.345-26.307-28.459 0-16.243 10.289-28.459 26.307-28.459s26.437 12.216 26.437 28.459c0 16.114-10.418 28.459-26.437 28.459z" fill="#000"/><path d="M758.188 368.124c26.307 0 45.451-18.712 45.451-44.832s-19.144-44.832-45.451-44.832c-26.177 0-45.321 18.712-45.321 44.832s19.144 44.832 45.321 44.832zm0-16.373c-16.019 0-26.307-12.345-26.307-28.459 0-16.243 10.288-28.459 26.307-28.459s26.437 12.216 26.437 28.459c0 16.114-10.419 28.459-26.437 28.459z" fill="#000"/><path d="M946.253 366.565v-16.244h-36.725v-70.432h-18.493v86.676h55.218z" fill="#000"/></g><defs><filter id="A" x="31.164" y="262.46" width="935.089" height="129.664" filterUnits="userSpaceOnUse" color-interpolation-filters="sRGB"><feFlood flood-opacity="0" result="A"/><feColorMatrix in="SourceAlpha" values="0 0 0 0 0 0 0 0 0 0 0 0 0 0 0 0 0 0 127 0"/><feOffset dy="4"/><feGaussianBlur stdDeviation="10"/><feColorMatrix values="0 0 0 0 0 0 0 0 0 0 0 0 0 0 0 0 0 0 0.0233526 0"/><feBlend in2="A"/><feBlend in="SourceGraphic"/></filter></defs></svg>