<svg aria-hidden="true" style="position: absolute; width: 0; height: 0; overflow: hidden;" version="1.1" xmlns="http://www.w3.org/2000/svg" xmlns:xlink="http://www.w3.org/1999/xlink">
<defs>
<symbol id="Dribbble" viewBox="0 0 32 32">
<path fill="#ffb400" style="fill: var(--color1, #ffb400)" d="M32 16c0 8.837-7.163 16-16 16s-16-7.163-16-16c0-8.837 7.163-16 16-16s16 7.163 16 16z"></path>
<path fill="#2b2b2b" style="fill: var(--color2, #2b2b2b)" d="M22.214 15.667c-0.064-1.224-0.49-2.402-1.223-3.384-0.224 0.241-0.463 0.467-0.715 0.677-0.777 0.645-1.646 1.172-2.577 1.563 0.13 0.272 0.249 0.536 0.354 0.785v0.003c0.030 0.070 0.059 0.139 0.086 0.21 1.177-0.133 2.419-0.084 3.622 0.078 0.16 0.022 0.311 0.046 0.455 0.068zM14.914 9.872c0.758 1.068 1.457 2.177 2.094 3.321 0.951-0.375 1.738-0.848 2.37-1.374 0.22-0.181 0.427-0.377 0.619-0.587-1.119-0.941-2.535-1.456-3.997-1.454-0.364 0-0.727 0.031-1.086 0.094v0.001zM9.975 14.442c0.529-0.014 1.059-0.045 1.587-0.096 1.275-0.114 2.54-0.328 3.781-0.639-0.649-1.128-1.35-2.225-2.1-3.288-0.801 0.397-1.508 0.962-2.072 1.656s-0.972 1.501-1.196 2.367zM11.164 19.916c0.302-0.441 0.699-0.937 1.225-1.477 1.131-1.159 2.465-2.061 4.010-2.559l0.048-0.014c-0.128-0.283-0.249-0.536-0.37-0.774-1.428 0.417-2.932 0.677-4.431 0.811-0.731 0.066-1.387 0.095-1.869 0.1-0.001 1.426 0.489 2.808 1.388 3.914h-0.001zM18.337 21.767c-0.3-1.512-0.725-2.997-1.269-4.44-1.557 0.565-2.798 1.392-3.757 2.378-0.387 0.391-0.73 0.822-1.025 1.287 1.073 0.8 2.375 1.232 3.714 1.23 0.801 0.001 1.594-0.153 2.337-0.453v-0.002zM19.794 20.931c1.214-0.934 2.042-2.283 2.324-3.788-0.264-0.066-0.6-0.132-0.969-0.184-0.82-0.118-1.651-0.127-2.473-0.026 0.463 1.306 0.837 2.642 1.119 3.998v-0.001zM16 23.777c-4.296 0-7.778-3.482-7.778-7.777s3.482-7.778 7.778-7.778c4.296 0 7.777 3.482 7.777 7.778s-3.482 7.777-7.777 7.777z"></path>
</symbol>
<symbol id="Youtube" viewBox="0 0 32 32">
<path fill="#ffb400" style="fill: var(--color1, #ffb400)" d="M32 16c0 8.837-7.163 16-16 16s-16-7.163-16-16c0-8.837 7.163-16 16-16s16 7.163 16 16z"></path>
<path fill="#2b2b2b" style="fill: var(--color2, #2b2b2b)" d="M23.422 11.721c0.355 1.386 0.355 4.279 0.355 4.279s0 2.893-0.355 4.279c-0.197 0.766-0.775 1.369-1.507 1.573-1.329 0.37-5.915 0.37-5.915 0.37s-4.584 0-5.915-0.37c-0.735-0.207-1.312-0.809-1.507-1.573-0.355-1.386-0.355-4.279-0.355-4.279s0-2.893 0.355-4.279c0.197-0.766 0.775-1.369 1.507-1.572 1.331-0.37 5.915-0.37 5.915-0.37s4.585 0 5.915 0.37c0.735 0.206 1.313 0.809 1.507 1.572zM14.444 18.723l4.667-2.723-4.667-2.722v5.445z"></path>
</symbol>
<symbol id="Linkeding" viewBox="0 0 32 32">
<path fill="#ffb400" style="fill: var(--color1, #ffb400)" d="M32 16c0 8.837-7.163 16-16 16s-16-7.163-16-16c0-8.837 7.163-16 16-16s16 7.163 16 16z"></path>
<path fill="#2b2b2b" style="fill: var(--color2, #2b2b2b)" d="M12.064 10.556c-0.001 0.412-0.165 0.808-0.456 1.1s-0.688 0.455-1.1 0.455c-0.413-0.001-0.808-0.165-1.1-0.456s-0.455-0.688-0.455-1.1c0-0.413 0.164-0.808 0.456-1.1s0.688-0.455 1.1-0.455c0.412 0 0.808 0.164 1.1 0.456s0.455 0.688 0.455 1.1zM12.111 13.262h-3.111v9.738h3.111v-9.738zM17.027 13.262h-3.096v9.738h3.065v-5.11c0-2.846 3.71-3.111 3.71 0v5.11h3.072v-6.168c0-4.799-5.491-4.62-6.782-2.263l0.031-1.307z"></path>
</symbol>
<symbol id="Twitter" viewBox="0 0 32 32">
<path fill="#ffb400" style="fill: var(--color1, #ffb400)" d="M32 16c0 8.837-7.163 16-16 16s-16-7.163-16-16c0-8.837 7.163-16 16-16s16 7.163 16 16z"></path>
<path fill="#2b2b2b" style="fill: var(--color2, #2b2b2b)" d="M23.904 11.066c-0.594 0.263-1.223 0.436-1.868 0.512 0.68-0.407 1.188-1.046 1.431-1.8-0.637 0.38-1.337 0.646-2.066 0.79-0.489-0.524-1.138-0.871-1.846-0.988s-1.433 0.003-2.065 0.341c-0.632 0.339-1.135 0.876-1.43 1.529s-0.366 1.386-0.202 2.084c-1.293-0.064-2.559-0.401-3.714-0.986s-2.174-1.408-2.991-2.413c-0.289 0.497-0.441 1.061-0.44 1.636 0 1.128 0.574 2.124 1.447 2.707-0.516-0.016-1.021-0.156-1.473-0.406v0.040c0.001 0.751 0.26 1.479 0.736 2.061s1.138 0.98 1.874 1.129c-0.48 0.13-0.982 0.149-1.47 0.056 0.207 0.646 0.612 1.212 1.157 1.617s1.202 0.629 1.882 0.643c-0.674 0.53-1.447 0.921-2.273 1.152s-1.69 0.298-2.542 0.195c1.487 0.956 3.217 1.464 4.986 1.462 5.983 0 9.255-4.957 9.255-9.256 0-0.14-0.004-0.281-0.010-0.42 0.637-0.46 1.186-1.031 1.623-1.684l-0.001-0.001z"></path>
</symbol>
<symbol id="Instagram" viewBox="0 0 32 32">
<path fill="#ffb400" style="fill: var(--color1, #ffb400)" d="M32 16c0 8.837-7.163 16-16 16s-16-7.163-16-16c0-8.837 7.163-16 16-16s16 7.163 16 16z"></path>
<path fill="#2b2b2b" style="fill: var(--color2, #2b2b2b)" d="M16 8.222c2.113 0 2.377 0.008 3.206 0.047s1.393 0.169 1.889 0.361c0.513 0.198 0.945 0.466 1.378 0.897 0.395 0.389 0.701 0.859 0.897 1.378 0.192 0.495 0.323 1.060 0.362 1.888 0.037 0.829 0.046 1.093 0.046 3.206s-0.008 2.377-0.046 3.206c-0.039 0.828-0.17 1.393-0.362 1.889-0.195 0.519-0.501 0.99-0.897 1.378-0.389 0.395-0.859 0.701-1.378 0.897-0.495 0.192-1.061 0.323-1.889 0.362-0.829 0.037-1.092 0.046-3.206 0.046s-2.377-0.008-3.206-0.046c-0.828-0.039-1.392-0.17-1.888-0.362-0.52-0.195-0.99-0.501-1.378-0.897-0.396-0.389-0.702-0.859-0.897-1.378-0.193-0.495-0.323-1.061-0.361-1.889-0.036-0.829-0.047-1.092-0.047-3.206s0.008-2.377 0.047-3.206c0.038-0.829 0.169-1.392 0.361-1.888 0.195-0.52 0.501-0.99 0.897-1.378 0.389-0.396 0.859-0.702 1.378-0.897 0.496-0.193 1.059-0.323 1.888-0.361 0.829-0.036 1.093-0.047 3.206-0.047zM16 12.111c-1.032 0-2.021 0.41-2.75 1.139s-1.139 1.718-1.139 2.75c0 1.031 0.41 2.020 1.139 2.749s1.718 1.139 2.75 1.139c1.031 0 2.020-0.409 2.749-1.139s1.139-1.718 1.139-2.749c0-1.032-0.409-2.021-1.139-2.75s-1.718-1.139-2.749-1.139zM21.055 11.917c0-0.258-0.102-0.505-0.285-0.688s-0.43-0.285-0.687-0.285c-0.258 0-0.505 0.103-0.687 0.285s-0.285 0.43-0.285 0.688c0 0.258 0.103 0.505 0.285 0.688s0.43 0.284 0.687 0.284c0.258 0 0.505-0.102 0.687-0.284s0.285-0.43 0.285-0.688zM16 13.667c0.619 0 1.212 0.245 1.65 0.683s0.684 1.031 0.684 1.65c0 0.619-0.246 1.212-0.684 1.65s-1.031 0.684-1.65 0.684c-0.619 0-1.212-0.246-1.65-0.684s-0.683-1.031-0.683-1.65c0-0.619 0.245-1.212 0.683-1.65s1.031-0.683 1.65-0.683z"></path>
</symbol>
<symbol id="Facebook" viewBox="0 0 32 32">
<path fill="#ffb400" style="fill: var(--color1, #ffb400)" d="M32 16c0 8.837-7.163 16-16 16s-16-7.163-16-16c0-8.837 7.163-16 16-16s16 7.163 16 16z"></path>
<path fill="#2b2b2b" style="fill: var(--color2, #2b2b2b)" d="M17.556 17.167h1.944l0.778-3.111h-2.722v-1.555c0-0.801 0-1.556 1.555-1.556h1.167v-2.613c-0.253-0.033-1.211-0.109-2.222-0.109-2.112 0-3.611 1.289-3.611 3.656v2.178h-2.333v3.111h2.333v6.611h3.111v-6.611z"></path>
</symbol>
</defs>
</svg>
