<svg id="Dribbble" width="24.000000" height="24.000000" viewBox="0 0 24 24" fill="none" xmlns="http://www.w3.org/2000/svg" xmlns:xlink="http://www.w3.org/1999/xlink">
	<desc>
			Created with Pixso.
	</desc>
	<defs>
		<clipPath id="clip2_6906">
			<rect id="Icons-dribbble" width="14.000000" height="14.000000" transform="translate(5.000000 5.000000)" fill="white" fill-opacity="0"/>
		</clipPath>
	</defs>
	<circle id="Ellipse 9" cx="12.000000" cy="12.000000" r="12.000000" fill="#FFB400" fill-opacity="1.000000"/>
	<rect id="Icons-dribbble" width="14.000000" height="14.000000" transform="translate(5.000000 5.000000)" fill="#FFFFFF" fill-opacity="0"/>
	<rect id="Icons-dribbble" width="14.000000" height="14.000000" transform="translate(5.000000 5.000000)" fill="#FFFFFF" fill-opacity="0"/>
	<rect id="Icons-dribbble" width="14.000000" height="14.000000" transform="translate(5.000000 5.000000)" fill="#FFFFFF" fill-opacity="0"/>
	<g clip-path="url(#clip2_6906)">
		<path id="Vector" d="M16.6602 11.75C16.6123 10.832 16.293 9.94873 15.7427 9.21191C15.5747 9.39258 15.3955 9.56201 15.2061 9.71973C14.623 10.2036 13.9717 10.5986 13.2734 10.8921C13.3706 11.0962 13.46 11.2939 13.5386 11.4805L13.5386 11.4824C13.561 11.5347 13.5825 11.5869 13.603 11.6401C14.4858 11.5405 15.417 11.5771 16.3193 11.6987C16.4395 11.7153 16.5527 11.7329 16.6602 11.75ZM11.1855 7.4043C11.7539 8.20557 12.2783 9.03711 12.7559 9.89502C13.4692 9.61377 14.0591 9.25928 14.5337 8.86426C14.6987 8.72852 14.854 8.58154 14.998 8.42383C14.1587 7.71777 13.0967 7.33154 12 7.33301C11.7271 7.33301 11.4546 7.35645 11.1855 7.40381L11.1855 7.4043ZM7.48096 10.8315C7.87793 10.8213 8.2749 10.7974 8.6709 10.7598C9.62744 10.6743 10.5757 10.5137 11.5068 10.2803C11.02 9.43457 10.4946 8.61182 9.93213 7.81445C9.33105 8.1123 8.80078 8.53564 8.37793 9.05615C7.95508 9.57666 7.64893 10.1821 7.48096 10.8315ZM8.37305 14.937C8.59961 14.606 8.89697 14.2339 9.29199 13.8291C10.1401 12.96 11.1411 12.2832 12.2998 11.9102L12.3359 11.8994C12.2397 11.687 12.1494 11.4976 12.0581 11.3188C10.9873 11.6313 9.85889 11.8262 8.73486 11.9268C8.18652 11.9766 7.69482 11.998 7.33301 12.0015C7.33203 13.0708 7.69971 14.1074 8.37402 14.937L8.37305 14.937ZM13.7529 16.3252C13.5278 15.1909 13.2095 14.0771 12.8008 12.9951C11.6328 13.4189 10.7026 14.0391 9.9834 14.7788C9.69287 15.0718 9.43555 15.3955 9.21484 15.7441C10.0195 16.3442 10.9961 16.668 12 16.6665C12.6006 16.6675 13.1958 16.5518 13.7529 16.3267L13.7529 16.3252ZM14.8452 15.6982C15.7559 14.998 16.3765 13.9863 16.5879 12.8574C16.3896 12.8076 16.1382 12.7583 15.8613 12.7197C15.2466 12.6313 14.623 12.6245 14.0063 12.7002C14.3535 13.6797 14.6338 14.6816 14.8452 15.6987L14.8452 15.6982ZM12 17.833C8.77832 17.833 6.1665 15.2217 6.1665 12C6.1665 8.77832 8.77832 6.1665 12 6.1665C15.2217 6.1665 17.833 8.77832 17.833 12C17.833 15.2217 15.2217 17.833 12 17.833Z" fill="#2B2B2B" fill-opacity="1.000000" fill-rule="nonzero"/>
	</g>
</svg>
