<svg width="78.000000" height="78.000000" viewBox="0 0 78 78" fill="none" xmlns="http://www.w3.org/2000/svg" xmlnsXlink="http://www.w3.org/1999/xlink">
	<desc>
			Created with Pixso.
	</desc>
	<defs>
		<clipPath id="clip3_152">
			<rect id="Icons/Photographer" width="78.000000" height="78.000000" fill="white" fillOpacity="0"/>
		</clipPath>
	</defs>
	<rect id="Icons/Photographer" width="78.000000" height="78.000000" fill="#FFFFFF" fillOpacity="0"/>
	<g clipPath="url(#clip3_152)">
		<path id="Vector" d="M55.355 72.9678L74.7126 72.9678L69.7434 58.0586C68.4438 54.1597 65.1274 51.2686 61.0879 50.5112L47.8064 48.0205L47.8064 44.9468C50.988 42.6509 53.2339 39.1533 53.8855 35.1201C56.8545 34.6182 59.1292 32.0454 59.1292 28.9355L59.1292 20.1289C59.1292 9.03027 50.0986 0 39 0C27.9014 0 18.8711 9.03027 18.8711 20.1289L18.8711 28.9355C18.8711 32.0415 21.1343 34.6294 24.0981 35.1367C24.7524 39.1699 27.0107 42.6709 30.1936 44.9658L30.1936 48.0215L16.9109 50.5127C12.8726 51.27 9.55493 54.1611 8.25537 58.0596L3.28735 72.9678L22.6453 72.9678L22.6453 70.4517L19.2246 70.4517L21.3494 61.9497L18.9087 61.3408L16.6304 70.4517L6.77734 70.4517L10.6433 58.855C11.6536 55.8228 14.2339 53.5732 17.3752 52.9834L25.3889 51.4814L27.4385 60.7002C26.0999 61.2817 25.1614 62.6128 25.1614 64.1611L25.1614 74.2256C25.1614 76.3066 26.8547 78 28.9355 78L49.0645 78C51.1455 78 52.8389 76.3066 52.8389 74.2256L52.8389 64.1611C52.8389 62.6128 51.9001 61.2817 50.563 60.7002L52.6123 51.4814L60.6262 52.9834C63.7676 53.5732 66.3467 55.8228 67.3582 58.855L71.2229 70.4517L61.3696 70.4517L59.0913 61.3408L56.6506 61.9497L58.7756 70.4517L55.355 70.4517L55.355 72.9678ZM50.1377 51.0171L48.4004 58.8345L47.531 55.355L42.0371 55.355L46.9685 50.4233L50.1377 51.0171ZM46.1948 60.3872L31.8052 60.3872L32.4341 57.8711L45.5659 57.8711L46.1948 60.3872ZM39 54.834L32.7097 48.5435L32.7097 46.4224C34.627 47.3057 36.7544 47.8066 39 47.8066C41.2468 47.8066 43.373 47.2993 45.2903 46.4165L45.2903 48.5435L39 54.834ZM54.0969 32.478L54.0969 25.394C55.5574 25.915 56.613 27.2988 56.613 28.9365C56.613 30.5747 55.5574 31.9575 54.0969 32.478ZM23.9033 32.4946C22.439 31.9751 21.3872 30.5762 21.3872 28.9355C21.3872 27.2949 22.439 25.896 23.9033 25.3765L23.9033 32.4946ZM21.3872 23.936L21.3872 20.1289C21.3872 10.417 29.2878 2.51611 39 2.51611C48.7124 2.51611 56.613 10.417 56.613 20.1289L56.613 23.936C55.8682 23.3726 55.0076 22.9561 54.0566 22.7686C53.8591 21.2827 52.5984 20.1289 51.0598 20.1289C50.261 20.1289 49.4785 20.4536 48.8494 21.0825C46.7246 23.2075 44.0322 24.5625 41.1162 25.0029L41.1965 24.8418C41.4055 24.4214 41.5161 23.9521 41.5161 23.4829L41.5161 23.166C41.5161 21.4917 40.1536 20.1289 38.4792 20.1289C37.6804 20.1289 36.8977 20.4536 36.3318 21.0186C33.6809 23.668 30.1646 25.1372 26.4194 25.1611L26.4194 22.645L25.1614 22.645C23.7397 22.645 22.4414 23.1372 21.3872 23.936ZM26.4194 32.7095L26.4194 27.6772C30.8364 27.6533 34.9856 25.9224 38.1094 22.7988C38.4126 22.4941 39 22.7422 39 23.166L39 23.4829C39 23.5635 38.9812 23.644 38.9446 23.7168L36.9646 27.6772L39 27.6772C43.3933 27.6772 47.5222 25.9678 50.6899 22.7988C50.9944 22.4941 51.5806 22.7422 51.5806 23.166L51.5806 32.7095C51.5806 39.6465 45.937 45.2905 39 45.2905C32.063 45.2905 26.4194 39.6465 26.4194 32.7095ZM31.0315 50.4233L35.9631 55.355L30.469 55.355L29.5999 58.8345L27.8623 51.0171L31.0315 50.4233ZM28.9355 75.4839C28.2424 75.4839 27.6775 74.9204 27.6775 74.2256L27.6775 64.1611C27.6775 63.4668 28.2424 62.9033 28.9355 62.9033L32.8494 62.9033C31.2126 64.5034 30.1936 66.7305 30.1936 69.1934C30.1936 71.6567 31.2126 73.8838 32.8494 75.4839L28.9355 75.4839ZM39 75.4839C35.5315 75.4839 32.7097 72.6621 32.7097 69.1934C32.7097 65.7251 35.5315 62.9033 39 62.9033C42.4685 62.9033 45.2903 65.7251 45.2903 69.1934C45.2903 72.6621 42.4685 75.4839 39 75.4839ZM50.3225 74.2256C50.3225 74.9204 49.7578 75.4839 49.0645 75.4839L45.1506 75.4839C46.7874 73.8838 47.8064 71.6567 47.8064 69.1934C47.8064 66.7305 46.7874 64.5034 45.1506 62.9033L49.0645 62.9033C49.7578 62.9033 50.3225 63.4668 50.3225 64.1611L50.3225 74.2256Z" fill="#2B2B2B" fillOpacity="1.000000" fillRule="nonzero"/>
		<path id="Vector" d="M39 65.4194C36.9192 65.4194 35.2258 67.1128 35.2258 69.1938C35.2258 71.2744 36.9192 72.9678 39 72.9678C41.0808 72.9678 42.7742 71.2744 42.7742 69.1938C42.7742 67.1128 41.0808 65.4194 39 65.4194ZM39 70.4517C38.3069 70.4517 37.7419 69.8882 37.7419 69.1938C37.7419 68.499 38.3069 67.9355 39 67.9355C39.6931 67.9355 40.2581 68.499 40.2581 69.1938C40.2581 69.8882 39.6931 70.4517 39 70.4517Z" fill="#2B2B2B" fillOpacity="1.000000" fillRule="nonzero"/>
	</g>
</svg>
