<svg width="74.000000" height="74.000000" viewBox="0 0 74 74" fill="none" xmlns="http://www.w3.org/2000/svg" xmlnsXlink="http://www.w3.org/1999/xlink">
	<desc>
			Created with Pixso.
	</desc>
	<defs>
		<clipPath id="clip3_171">
			<rect id="Icons/Microphone" width="74.000000" height="74.000000" fill="white" fillOpacity="0"/>
		</clipPath>
	</defs>
	<rect id="Icons/Microphone" width="74.000000" height="74.000000" fill="#FFFFFF" fillOpacity="0"/>
	<g clipPath="url(#clip3_171)">
		<path id="Vector" d="M37 0C29.0176 0 22.5217 6.75342 22.5217 15.0527L22.5217 37C22.5217 45.3008 29.0176 52.0527 37 52.0527C44.9824 52.0527 51.4783 45.3008 51.4783 37L51.4783 15.0527C51.4783 6.75342 44.9824 0 37 0ZM37 48.835C31.3115 48.835 26.6062 44.374 25.855 38.6089L48.1433 38.6089C47.3938 44.376 42.6882 48.835 37 48.835ZM48.2607 35.3911L25.739 35.3911L25.739 15.0527C25.739 8.52588 30.7905 3.21729 37 3.21729C43.2095 3.21729 48.2607 8.52588 48.2607 15.0527L48.2607 35.3911Z" fill="#2B2B2B" fillOpacity="1.000000" fillRule="nonzero"/>
		<path id="Vector" d="M59.5217 28.9565C58.6338 28.9565 57.9131 29.6772 57.9131 30.5654L57.9131 37C57.9131 48.5312 48.5312 57.9131 37 57.9131C25.469 57.9131 16.0869 48.5312 16.0869 37L16.0869 30.5654C16.0869 29.6772 15.3662 28.9565 14.4783 28.9565C13.5903 28.9565 12.8696 29.6772 12.8696 30.5654L12.8696 37C12.8696 49.7617 22.8354 60.2153 35.3914 61.0483L35.3914 70.7827L27.3479 70.7827C26.46 70.7827 25.7393 71.5034 25.7393 72.3911C25.7393 73.2793 26.46 74 27.3479 74L46.6523 74C47.5403 74 48.261 73.2793 48.261 72.3911C48.261 71.5034 47.5403 70.7827 46.6523 70.7827L38.6086 70.7827L38.6086 61.0483C51.1646 60.2153 61.1306 49.7617 61.1306 37L61.1306 30.5654C61.1306 29.6772 60.4099 28.9565 59.5217 28.9565Z" fill="#2B2B2B" fillOpacity="1.000000" fillRule="nonzero"/>
	</g>
</svg>
